<svg preserveAspectRatio="xMidYMid meet"  overflow="visible" style="display: block;" viewBox="0 0 149 42.9518" fill="none" xmlns="http://www.w3.org/2000/svg">
<g id="Group 84">
<path id="Vector" d="M65.3384 19.2508C65.3384 22.1186 63.028 24.5698 58.3137 24.5698C53.5995 24.5698 51.2891 21.6545 51.2891 18.4638H55.1261C55.1261 19.8969 55.8656 21.4234 58.3154 21.4234C60.7652 21.4234 61.4588 20.3822 61.4588 19.4804C61.4588 18.5114 60.7422 17.9326 58.3154 17.6079C53.301 16.9619 51.8466 15.2731 51.8466 12.4054C51.8466 9.53768 54.134 7.55045 58.3613 7.55045C62.5886 7.55045 64.6251 10.164 64.7383 12.9153H60.9931C60.9931 11.8512 60.3224 10.6953 58.3121 10.6953C56.3018 10.6953 55.7 11.5741 55.7 12.2677C55.7 12.8924 55.9984 13.5859 58.4941 13.863C62.6755 14.3254 65.3351 15.5502 65.3351 19.2508H65.3384Z" fill="var(--fill-0, #FCFCFC)"/>
<path id="Vector_2" d="M82.8804 16.0601C82.8804 20.7544 80.0141 24.5698 74.5603 24.5698C69.1065 24.5698 66.2402 20.7544 66.2402 16.0601C66.2402 11.3659 69.1065 7.55045 74.562 7.55045C80.0174 7.55045 82.882 11.3659 82.882 16.0601H82.8804ZM78.9991 16.0601C78.9991 13.1924 77.4053 10.8805 74.5603 10.8805C71.7153 10.8805 70.1215 13.1924 70.1215 16.0601C70.1215 18.9278 71.7153 21.2397 74.5603 21.2397C77.4053 21.2397 78.9991 18.9278 78.9991 16.0601Z" fill="var(--fill-0, #FCFCFC)"/>
<path id="Vector_3" d="M88.588 7.9227V20.8709H96.5375V24.2009H84.7051V7.9227H88.588Z" fill="var(--fill-0, #FCFCFC)"/>
<path id="Vector_4" d="M98.8095 7.9227L102.414 19.4132C102.599 20.015 102.668 20.6856 102.689 21.4021C102.689 21.6316 102.758 21.8415 103.058 21.8415C103.358 21.8415 103.45 21.6333 103.45 21.4021C103.473 20.6856 103.519 20.015 103.704 19.4132L107.31 7.9227H111.376L105.646 24.2009H100.469L94.7363 7.9227H98.8062H98.8095Z" fill="var(--fill-0, #FCFCFC)"/>
<path id="Vector_5" d="M121.322 7.92271L124.928 19.4132C125.113 20.015 125.182 20.6856 125.203 21.4021C125.203 21.6316 125.272 21.8415 125.572 21.8415C125.872 21.8415 125.966 21.6333 125.966 21.4021C125.989 20.6856 126.034 20.015 126.22 19.4132L129.826 7.92271H133.892L128.161 24.2009H122.985L117.252 7.92271H121.319H121.322Z" fill="var(--fill-0, #FCFCFC)"/>
<path id="Vector_6" d="M143.087 7.92271H137.91L131.994 24.2009H136.061L139.85 12.7104C140.058 12.1087 140.104 11.461 140.127 10.7445C140.127 10.5133 140.221 10.328 140.496 10.328C140.772 10.328 140.888 10.5133 140.888 10.7445C140.911 11.461 140.934 12.1087 141.142 12.7104L144.933 24.2009H149L143.085 7.92271H143.089H143.087Z" fill="var(--fill-0, #FCFCFC)"/>
<g id="Group 60">
<g id="Group">
<path id="Vector_7" d="M29.7541 1.45591L28.0012 9.30481C27.9077 9.71472 27.7224 10.1263 27.4978 10.5477C27.4207 10.6821 27.3896 10.8231 27.5667 10.9264C27.7438 11.0281 27.8618 10.9379 27.9422 10.8034C28.1947 10.3968 28.4456 10.0246 28.7539 9.73604L34.6766 4.29411L37.0297 5.65172L28.2816 13.153L25.2891 11.4232L27.406 0.0982971L29.759 1.45591H29.7557H29.7541Z" fill="var(--fill-0, #FCFCFC)"/>
<path id="Vector_8" d="M38.6574 8.27823L33.2151 14.2006C32.9282 14.5072 32.5641 14.7728 32.1575 15.0253C32.023 15.1024 31.9279 15.2139 32.0263 15.386C32.1263 15.5598 32.2788 15.5418 32.41 15.4664C32.8314 15.2417 33.2348 15.0417 33.6447 14.9482L41.4942 13.1955L42.8519 15.5483L31.5229 17.67L29.793 14.6777L37.2932 5.927L38.6509 8.27987L38.6591 8.27659L38.6574 8.27823Z" fill="var(--fill-0, #FCFCFC)"/>
<path id="Vector_9" d="M42.9536 18.636L35.2779 21.043C34.8762 21.166 34.4269 21.2135 33.9497 21.2283C33.7956 21.2283 33.6562 21.2742 33.6562 21.4758C33.6562 21.6775 33.7956 21.7382 33.9497 21.7382C34.4269 21.7529 34.8778 21.7841 35.2779 21.9087L42.9536 24.3157V27.0325L32.082 23.2056V19.7493L42.9536 15.9208V18.6376V18.636Z" fill="var(--fill-0, #FCFCFC)"/>
<path id="Vector_10" d="M41.4968 29.7543L33.6473 28.0015C33.2374 27.9081 32.8258 27.7228 32.4044 27.4982C32.2699 27.4211 32.1289 27.3899 32.0256 27.567C31.9239 27.7441 32.0141 27.8638 32.1486 27.9425C32.5552 28.195 32.9275 28.4459 33.2161 28.7541L38.6584 34.6765L37.3007 37.0293L29.7988 28.2819L31.5288 25.2896L42.8578 27.4096L41.5001 29.7625L41.4968 29.7559V29.7543Z" fill="var(--fill-0, #FCFCFC)"/>
<path id="Vector_11" d="M34.6757 38.6559L28.7529 33.214C28.4463 32.9271 28.1806 32.5631 27.9281 32.1565C27.851 32.022 27.7395 31.9253 27.5674 32.0253C27.3936 32.1253 27.4116 32.2778 27.487 32.409C27.7117 32.8304 27.9117 33.2337 28.0052 33.6436L29.7581 41.4925L27.405 42.8501L25.2832 31.5219L28.2757 29.7921L37.0271 37.2918L34.674 38.6494L34.6773 38.6576L34.6757 38.6559Z" fill="var(--fill-0, #FCFCFC)"/>
<path id="Vector_12" d="M24.3151 42.9518L21.908 35.2767C21.785 34.875 21.7374 34.4258 21.7227 33.9486C21.7227 33.7945 21.6768 33.6551 21.4751 33.6551C21.2734 33.6551 21.2127 33.7945 21.2127 33.9486C21.198 34.4258 21.1668 34.8767 21.0422 35.2767L18.635 42.9518H15.918L19.7451 32.0811H23.2017L27.0305 42.9518H24.3135H24.3151Z" fill="var(--fill-0, #FCFCFC)"/>
<path id="Vector_13" d="M13.1974 41.4958L14.9503 33.6469C15.0438 33.237 15.2291 32.8254 15.4537 32.404C15.5308 32.2696 15.562 32.1286 15.3849 32.0253C15.2078 31.9236 15.0897 32.0138 15.0094 32.1483C14.7568 32.5549 14.506 32.9271 14.1977 33.2157L8.27491 38.6576L5.92188 37.3L14.6699 29.7987L17.6625 31.5285L15.5423 42.8567L13.1892 41.4991L13.1942 41.4958H13.1974Z" fill="var(--fill-0, #FCFCFC)"/>
<path id="Vector_14" d="M4.29572 34.6732L9.73805 28.7508C10.025 28.4442 10.389 28.1786 10.7957 27.9261C10.9301 27.849 11.0269 27.7392 10.9269 27.5654C10.8268 27.3916 10.6743 27.4096 10.5432 27.4851C10.1217 27.7097 9.71837 27.9097 9.30843 28.0032L1.45896 29.7559L0.0996094 27.4063L11.4286 25.2847L13.1586 28.277L5.65835 37.0277L4.30064 34.6748H4.29408L4.29572 34.6732Z" fill="var(--fill-0, #FCFCFC)"/>
<path id="Vector_15" d="M0 24.3157L7.67566 21.9087C8.0774 21.7857 8.52669 21.7382 9.00385 21.7234C9.15799 21.7234 9.29737 21.6775 9.29737 21.4758C9.29737 21.2742 9.15799 21.2135 9.00385 21.2135C8.52505 21.1987 8.07576 21.1676 7.67566 21.043L0 18.636V15.9191L10.8715 19.746V23.2024L0 27.0309V24.314V24.3157Z" fill="var(--fill-0, #FCFCFC)"/>
<path id="Vector_16" d="M1.45732 13.1975L9.30679 14.9502C9.71673 15.0437 10.1283 15.229 10.5497 15.4536C10.6842 15.5307 10.8252 15.5618 10.9285 15.3847C11.0302 15.2077 10.94 15.0896 10.8055 15.0093C10.3989 14.7568 10.0266 14.5059 9.73804 14.1976L4.29572 8.27694L5.65343 5.92407L13.1553 14.6715L11.4253 17.6638L0.0996094 15.5471L1.45732 13.1942V13.1975Z" fill="var(--fill-0, #FCFCFC)"/>
<path id="Vector_17" d="M8.28101 4.29575L14.2038 9.73767C14.5104 10.0246 14.776 10.3886 15.0286 10.7952C15.1056 10.9297 15.2171 11.0264 15.3893 10.9264C15.5631 10.8264 15.5451 10.6739 15.4697 10.5427C15.245 10.1213 15.045 9.718 14.9515 9.30809L13.1986 1.45919L15.5516 0.0999355L17.6735 11.4281L14.6809 13.1579L5.92961 5.65828L8.28265 4.30067L8.27937 4.29575H8.28101Z" fill="var(--fill-0, #FCFCFC)"/>
<path id="Vector_18" d="M18.6373 0L21.0444 7.6751C21.1674 8.07681 21.215 8.52607 21.2297 9.0032C21.2297 9.15733 21.2757 9.2967 21.4773 9.2967C21.679 9.2967 21.7397 9.15733 21.7397 9.0032C21.7545 8.52607 21.7856 8.07517 21.9102 7.6751L24.3174 0H27.0344L23.2073 10.8707H19.7507L15.9219 0H18.6389H18.6373Z" fill="var(--fill-0, #FCFCFC)"/>
</g>
<path id="Vector_19" d="M112.392 24.1993V7.92104H116.275V24.1993H112.392Z" fill="var(--fill-0, #FCFCFC)"/>
<path id="Vector_20" d="M55.5455 34.3436L55.0864 32.9926H52.4644L52.0053 34.3436H51.0723L53.1318 28.6804H54.419L56.4785 34.3436H55.5455ZM52.6973 32.2843H54.8535L53.9205 29.5166C53.8877 29.4116 53.8566 29.3149 53.8402 29.1788C53.832 29.1313 53.832 29.0821 53.7762 29.0821C53.7205 29.0821 53.7205 29.1296 53.7123 29.1788C53.6959 29.3149 53.6647 29.4116 53.6319 29.5166L52.6989 32.2843H52.6973ZM59.1956 30.1609C60.145 30.1609 60.7238 30.6922 60.7238 31.8989V34.3436H59.9515V32.0596C59.9515 31.1021 59.5416 30.8365 59.0021 30.8365C58.4069 30.8365 57.7641 31.4398 57.7641 32.4203V34.342H56.9918V30.2232H57.7641V30.4971C57.7641 30.6659 57.7477 30.8348 57.6755 31.0447C57.6509 31.1168 57.6198 31.1972 57.6837 31.2136C57.7313 31.23 57.7559 31.1726 57.7723 31.1414C57.933 30.7397 58.456 30.1609 59.1956 30.1609ZM68.1617 34.3436L67.7026 32.9926H65.0806L64.6215 34.3436H63.6885L65.748 28.6804H67.0352L69.0947 34.3436H68.1617ZM65.3135 32.2843H67.4697L66.5367 29.5166C66.5039 29.4116 66.4728 29.3149 66.4564 29.1788C66.4482 29.1313 66.4482 29.0821 66.3924 29.0821C66.3367 29.0821 66.3367 29.1296 66.3285 29.1788C66.3121 29.3149 66.2809 29.4116 66.2481 29.5166L65.3151 32.2843H65.3135ZM70.3803 28.5525V30.5479C70.3803 30.7004 70.3557 30.8217 70.2999 30.9906C70.2753 31.0545 70.2278 31.1349 70.2999 31.1595C70.3639 31.1841 70.3885 31.1037 70.3967 31.0791C70.6377 30.5479 71.1215 30.1626 71.7806 30.1626C72.8497 30.1626 73.5991 31.0627 73.5991 32.2859C73.5991 33.5091 72.8514 34.4092 71.7806 34.4092C71.1378 34.4092 70.6459 34.0305 70.3967 33.4763C70.3885 33.4517 70.3639 33.3877 70.3163 33.4041C70.236 33.4287 70.2753 33.5009 70.2999 33.5648C70.3557 33.7419 70.3803 33.855 70.3803 33.9993V34.3453H69.608V28.5541H70.3803V28.5525ZM71.6183 33.6993C72.4234 33.6993 72.8251 33.0483 72.8251 32.2843C72.8251 31.5202 72.4234 30.8693 71.6183 30.8693C70.887 30.8693 70.3803 31.5202 70.3803 32.2843C70.3803 33.0483 70.887 33.6993 71.6183 33.6993ZM76.1374 30.1609C77.3836 30.1609 78.1314 31.1185 78.1314 32.2843C78.1314 33.45 77.3836 34.4076 76.1374 34.4076C74.8912 34.4076 74.1419 33.45 74.1419 32.2843C74.1419 31.1185 74.8896 30.1609 76.1374 30.1609ZM76.1374 33.6993C76.9098 33.6993 77.3607 33.0631 77.3607 32.2843C77.3607 31.5054 76.9098 30.8693 76.1374 30.8693C75.3651 30.8693 74.9142 31.5054 74.9142 32.2843C74.9142 33.0631 75.3651 33.6993 76.1374 33.6993ZM78.743 29.4526V28.5525H79.5793V29.4526H78.743ZM78.7758 34.3436V30.2249H79.5481V34.3436H78.7758ZM82.7653 30.9004H81.6076V33.0565C81.6076 33.5238 81.7044 33.6681 82.1553 33.6681H82.7669V34.3436H82.0914C81.2387 34.3436 80.837 34.0305 80.837 33.1369V30.9004H80.0646V30.2249H80.837V29.0673H81.6093V30.2249H82.7669V30.9004H82.7653ZM83.5737 29.4526V28.5525H84.41V29.4526H83.5737ZM83.6065 34.3436V30.2249H84.3788V34.3436H83.6065ZM85.2134 34.3436V33.3779L87.619 31.1824C87.7075 31.1103 87.8288 31.0217 87.9649 30.966C88.0059 30.9496 88.0535 30.9102 88.0289 30.8693C88.0043 30.8283 87.9649 30.8447 87.9075 30.8611C87.7715 30.9021 87.6255 30.9332 87.5288 30.9332H85.2118V30.2249H88.6864V31.1906L86.2809 33.3861C86.1924 33.4582 86.071 33.5386 85.9349 33.6025C85.8939 33.6189 85.8464 33.6583 85.871 33.6993C85.8956 33.7402 85.9349 33.7239 85.9923 33.7075C86.1284 33.6599 86.2744 33.6353 86.3711 33.6353H88.6881V34.3436H85.2134ZM91.6986 28.6804C93.2908 28.6804 93.8385 29.4362 93.8385 30.4495C93.8385 31.4628 93.1957 32.2187 91.8282 32.2187H90.4278V34.342H89.5916V28.6787H91.6986V28.6804ZM91.82 31.512C92.6005 31.512 93.0022 31.0529 93.0022 30.4495C93.0022 29.7822 92.6005 29.387 91.82 29.387H90.4278V31.5104H91.82V31.512ZM96.2227 30.1609C97.4689 30.1609 98.2183 31.1185 98.2183 32.2843C98.2183 33.45 97.4706 34.4076 96.2227 34.4076C94.9749 34.4076 94.2271 33.45 94.2271 32.2843C94.2271 31.1185 94.9749 30.1609 96.2227 30.1609ZM96.2227 33.6993C96.995 33.6993 97.446 33.0631 97.446 32.2843C97.446 31.5054 96.995 30.8693 96.2227 30.8693C95.4504 30.8693 94.9995 31.5054 94.9995 32.2843C94.9995 33.0631 95.4504 33.6993 96.2227 33.6993ZM98.3462 30.2249H99.1825L100.027 33.3057C100.068 33.4664 100.083 33.6189 100.083 33.7796C100.083 33.8271 100.091 33.8763 100.147 33.8763C100.202 33.8763 100.211 33.8288 100.211 33.7796C100.211 33.6189 100.227 33.4664 100.266 33.3057L101.047 30.2249H101.947L102.728 33.3057C102.769 33.4664 102.783 33.6189 102.783 33.7796C102.783 33.8271 102.792 33.8763 102.847 33.8763C102.903 33.8763 102.911 33.8288 102.911 33.7796C102.911 33.6189 102.928 33.4664 102.967 33.3057L103.811 30.2249H104.648L103.393 34.3436H102.364L101.599 31.4153C101.575 31.2939 101.558 31.1414 101.558 30.9808C101.558 30.9332 101.558 30.8758 101.494 30.8758C101.431 30.8758 101.431 30.9316 101.431 30.9808C101.431 31.1414 101.414 31.2939 101.39 31.4153L100.625 34.3436H99.5957L98.3413 30.2249H98.3462ZM108.647 32.2269C108.647 32.34 108.639 32.4203 108.622 32.5089H105.55C105.605 33.168 106.056 33.6993 106.804 33.6993C107.358 33.6993 107.632 33.4254 107.778 32.9516H108.575C108.406 33.7157 107.844 34.4076 106.789 34.4076C105.494 34.4076 104.787 33.45 104.787 32.2843C104.787 31.0463 105.592 30.1609 106.774 30.1609C107.691 30.1609 108.649 30.7643 108.649 32.2285L108.647 32.2269ZM105.591 31.8661H107.875C107.827 31.2628 107.44 30.8365 106.812 30.8365C106.04 30.8365 105.702 31.3103 105.589 31.8661H105.591ZM110.002 31.1824C110.042 31.1906 110.065 31.1496 110.082 31.1103C110.339 30.4512 110.572 30.1609 111.61 30.1609V30.9496C110.411 30.8693 110.065 31.2956 110.065 32.3728V34.3436H109.293V30.2249H110.065V30.4987C110.065 30.6676 110.049 30.7971 109.977 31.0381C109.961 31.1021 109.936 31.166 110.002 31.1824ZM114.699 31.512C114.699 29.9117 115.688 28.6164 117.434 28.6164C119.181 28.6164 119.904 29.8314 119.976 30.8037H119.148C119.068 30.1363 118.545 29.3231 117.459 29.3231C116.236 29.3231 115.537 30.297 115.537 31.5104C115.537 32.7237 116.237 33.6976 117.459 33.6976C118.545 33.6976 119.068 32.886 119.148 32.217H119.976C119.904 33.191 119.187 34.4043 117.434 34.4043C115.682 34.4043 114.699 33.109 114.699 31.5087V31.512ZM122.483 30.1609C123.729 30.1609 124.479 31.1185 124.479 32.2843C124.479 33.45 123.731 34.4076 122.483 34.4076C121.235 34.4076 120.488 33.45 120.488 32.2843C120.488 31.1185 121.235 30.1609 122.483 30.1609ZM122.483 33.6993C123.256 33.6993 123.707 33.0631 123.707 32.2843C123.707 31.5054 123.256 30.8693 122.483 30.8693C121.711 30.8693 121.26 31.5054 121.26 32.2843C121.26 33.0631 121.711 33.6993 122.483 33.6993ZM129.514 30.1609C130.287 30.1609 130.915 30.5626 130.915 31.8334V34.3436H130.143V31.7383C130.143 31.0955 129.829 30.8381 129.331 30.8381C128.88 30.8381 128.406 31.2562 128.406 32.0121V34.3453H127.634V31.835C127.634 31.1923 127.417 30.8381 126.894 30.8381C126.371 30.8381 125.897 31.3693 125.897 32.1892V34.3453H125.125V30.2265H125.897V30.5003C125.897 30.6528 125.881 30.7906 125.809 31.0234C125.792 31.0873 125.768 31.1447 125.825 31.1595C125.881 31.1759 125.905 31.1267 125.914 31.0955C126.115 30.5331 126.589 30.1626 127.152 30.1626C127.675 30.1626 128.085 30.5331 128.206 31.0398C128.214 31.0808 128.239 31.1037 128.286 31.1037C128.342 31.1037 128.358 31.0791 128.375 31.0398C128.591 30.4774 129.011 30.1626 129.518 30.1626L129.514 30.1609ZM132.523 30.2249V30.5462C132.523 30.6987 132.499 30.8201 132.443 30.989C132.418 31.0529 132.371 31.1332 132.443 31.1578C132.507 31.1824 132.532 31.1021 132.54 31.0775C132.781 30.5462 133.265 30.1609 133.924 30.1609C134.993 30.1609 135.742 31.0611 135.742 32.2843C135.742 33.5074 134.995 34.4076 133.924 34.4076C133.281 34.4076 132.789 34.0288 132.54 33.4746C132.532 33.45 132.507 33.3861 132.459 33.4025C132.379 33.4271 132.418 33.4992 132.443 33.5632C132.499 33.7402 132.523 33.8534 132.523 33.9977V35.8882H131.751V30.2249H132.523ZM133.763 33.6993C134.568 33.6993 134.97 33.0483 134.97 32.2843C134.97 31.5202 134.568 30.8693 133.763 30.8693C133.032 30.8693 132.525 31.5202 132.525 32.2843C132.525 33.0483 133.032 33.6993 133.763 33.6993ZM136.255 33.1926C136.255 32.2515 136.947 31.9613 137.736 31.9055C138.476 31.8498 139.225 31.9383 139.217 31.512C139.209 31.1742 139.015 30.8365 138.171 30.8365C137.446 30.8365 137.197 31.1103 137.141 31.512H136.385C136.529 30.5708 137.254 30.1609 138.204 30.1609C139.153 30.1609 139.989 30.4823 139.989 31.994V34.342H139.217V33.9485C139.217 33.796 139.233 33.6747 139.305 33.4664C139.322 33.3943 139.353 33.3303 139.297 33.3057C139.233 33.2812 139.217 33.3467 139.2 33.3861C138.968 33.9977 138.42 34.4076 137.672 34.4076C136.925 34.4076 136.257 33.8927 136.257 33.1926H136.255ZM139.215 32.1236C138.966 32.4285 138.41 32.4367 137.784 32.5253C137.285 32.5974 137.028 32.7745 137.028 33.1533C137.028 33.4828 137.302 33.7894 137.969 33.7009C138.597 33.6206 139.207 33.1615 139.215 32.1252V32.1236ZM143.092 30.1609C144.041 30.1609 144.62 30.6922 144.62 31.8989V34.3436H143.848V32.0596C143.848 31.1021 143.438 30.8365 142.898 30.8365C142.303 30.8365 141.66 31.4398 141.66 32.4203V34.342H140.888V30.2232H141.66V30.4971C141.66 30.6659 141.644 30.8348 141.572 31.0447C141.547 31.1168 141.516 31.1972 141.58 31.2136C141.627 31.23 141.652 31.1726 141.668 31.1414C141.829 30.7397 142.352 30.1609 143.092 30.1609ZM144.882 30.2249H145.718L146.829 33.2648C146.884 33.409 146.893 33.5632 146.893 33.6993C146.893 33.7468 146.893 33.8042 146.956 33.8042C147.02 33.8042 147.02 33.7484 147.02 33.6993C147.02 33.5632 147.045 33.409 147.093 33.2648L148.162 30.2249H148.998L147.212 34.8339C146.922 35.5897 146.52 35.8882 145.781 35.8882H145.25V35.2126H145.62C146.232 35.2126 146.337 35.0765 146.456 34.7781L146.57 34.5043L144.881 30.2249H144.882Z" fill="var(--fill-0, #FCFCFC)"/>
</g>
</g>
</svg>
